<?xml version="1.0" encoding="UTF-8" standalone="no"?>
<!-- Created with Inkscape (http://www.inkscape.org/) -->

<svg
   xmlns:dc="http://purl.org/dc/elements/1.1/"
   xmlns:cc="http://creativecommons.org/ns#"
   xmlns:rdf="http://www.w3.org/1999/02/22-rdf-syntax-ns#"
   xmlns:svg="http://www.w3.org/2000/svg"
   xmlns="http://www.w3.org/2000/svg"
   xmlns:xlink="http://www.w3.org/1999/xlink"
   xmlns:sodipodi="http://sodipodi.sourceforge.net/DTD/sodipodi-0.dtd"
   xmlns:inkscape="http://www.inkscape.org/namespaces/inkscape"
   width="210mm"
   height="297mm"
   viewBox="0 0 210 297"
   version="1.1"
   id="svg8"
   inkscape:version="0.92.4 5da689c313, 2019-01-14"
   sodipodi:docname="categories.svg">
  <defs
     id="defs2">
    <clipPath
       clipPathUnits="userSpaceOnUse"
       id="clipPath1580">
      <g
         id="g1610"
         style="fill:#ffffff;fill-opacity:1">
        <circle
           r="1.9563839"
           style="fill:#ffffff;fill-opacity:1;stroke:none;stroke-width:1.08188033;stroke-miterlimit:4;stroke-dasharray:none;stroke-opacity:1"
           id="circle1582"
           cx="86.157349"
           cy="186.27692" />
        <circle
           r="1.9563839"
           style="fill:#ffffff;fill-opacity:1;stroke:none;stroke-width:1.08188033;stroke-miterlimit:4;stroke-dasharray:none;stroke-opacity:1"
           id="circle1584"
           cx="86.157349"
           cy="204.42091" />
        <circle
           r="1.9563839"
           style="fill:#ffffff;fill-opacity:1;stroke:none;stroke-width:1.08188033;stroke-miterlimit:4;stroke-dasharray:none;stroke-opacity:1"
           id="circle1586"
           cx="124.11856"
           cy="204.42091" />
        <circle
           r="1.9563839"
           style="fill:#ffffff;fill-opacity:1;stroke:none;stroke-width:1.08188033;stroke-miterlimit:4;stroke-dasharray:none;stroke-opacity:1"
           id="circle1588"
           cx="124.11856"
           cy="186.22464" />
        <g
           id="g1598"
           transform="matrix(0.25599447,0,0,0.24773939,52.444806,106.7011)"
           style="fill:#ffffff;fill-opacity:1">
          <ellipse
             style="fill:#ffffff;fill-opacity:1;stroke:none;stroke-width:2.65918708;stroke-miterlimit:4;stroke-dasharray:none;stroke-opacity:1"
             id="ellipse1590"
             cx="131.67064"
             cy="350.95319"
             rx="5.6765866"
             ry="5.8657398" />
          <ellipse
             ry="5.8657398"
             rx="5.6765866"
             cy="337.20578"
             cx="131.67064"
             id="ellipse1592"
             style="fill:#ffffff;fill-opacity:1;stroke:none;stroke-width:2.65918708;stroke-miterlimit:4;stroke-dasharray:none;stroke-opacity:1" />
          <ellipse
             style="fill:#ffffff;fill-opacity:1;stroke:none;stroke-width:2.65918708;stroke-miterlimit:4;stroke-dasharray:none;stroke-opacity:1"
             id="ellipse1594"
             cx="131.67064"
             cy="378.44797"
             rx="5.6765866"
             ry="5.8657398" />
          <ellipse
             ry="5.8657398"
             rx="5.6765866"
             cy="364.70056"
             cx="131.91855"
             id="ellipse1596"
             style="fill:#ffffff;fill-opacity:1;stroke:none;stroke-width:2.65918708;stroke-miterlimit:4;stroke-dasharray:none;stroke-opacity:1" />
        </g>
        <g
           transform="matrix(0.25599447,0,0,0.24773939,90.379876,106.7011)"
           id="g1608"
           style="fill:#ffffff;fill-opacity:1">
          <ellipse
             ry="5.8657398"
             rx="5.6765866"
             cy="350.95319"
             cx="131.67064"
             id="ellipse1600"
             style="fill:#ffffff;fill-opacity:1;stroke:none;stroke-width:2.65918708;stroke-miterlimit:4;stroke-dasharray:none;stroke-opacity:1" />
          <ellipse
             style="fill:#ffffff;fill-opacity:1;stroke:none;stroke-width:2.65918708;stroke-miterlimit:4;stroke-dasharray:none;stroke-opacity:1"
             id="ellipse1602"
             cx="131.67064"
             cy="337.20578"
             rx="5.6765866"
             ry="5.8657398" />
          <ellipse
             ry="5.8657398"
             rx="5.6765866"
             cy="378.44797"
             cx="131.67064"
             id="ellipse1604"
             style="fill:#ffffff;fill-opacity:1;stroke:none;stroke-width:2.65918708;stroke-miterlimit:4;stroke-dasharray:none;stroke-opacity:1" />
          <ellipse
             style="fill:#ffffff;fill-opacity:1;stroke:none;stroke-width:2.65918708;stroke-miterlimit:4;stroke-dasharray:none;stroke-opacity:1"
             id="ellipse1606"
             cx="131.91855"
             cy="364.70056"
             rx="5.6765866"
             ry="5.8657398" />
        </g>
      </g>
    </clipPath>
  </defs>
  <sodipodi:namedview
     id="base"
     pagecolor="#ffffff"
     bordercolor="#666666"
     borderopacity="1.0"
     inkscape:pageopacity="0.0"
     inkscape:pageshadow="2"
     inkscape:zoom="1.979899"
     inkscape:cx="290.58461"
     inkscape:cy="45.851365"
     inkscape:document-units="mm"
     inkscape:current-layer="layer1"
     showgrid="false"
     inkscape:window-width="1600"
     inkscape:window-height="875"
     inkscape:window-x="0"
     inkscape:window-y="25"
     inkscape:window-maximized="0"
     showguides="true"
     inkscape:guide-bbox="true">
    <sodipodi:guide
       position="219.11989,190.7953"
       orientation="1,0"
       id="guide1575"
       inkscape:locked="false" />
  </sodipodi:namedview>
  <metadata
     id="metadata5">
    <rdf:RDF>
      <cc:Work
         rdf:about="">
        <dc:format>image/svg+xml</dc:format>
        <dc:type
           rdf:resource="http://purl.org/dc/dcmitype/StillImage" />
        <dc:title></dc:title>
      </cc:Work>
    </rdf:RDF>
  </metadata>
  <g
     inkscape:label="Layer 1"
     inkscape:groupmode="layer"
     id="layer1">
    <rect
       style="fill:#b8e5f8;fill-opacity:1;stroke:none;stroke-width:3.03304458;stroke-miterlimit:4;stroke-dasharray:none;stroke-opacity:1"
       id="rect162"
       width="51.412628"
       height="51.412628"
       x="21.470854"
       y="169.33739"
       inkscape:export-xdpi="505.89902"
       inkscape:export-ydpi="505.89902" />
    <rect
       y="111.885"
       x="21.470854"
       height="51.412628"
       width="51.412628"
       id="rect5431"
       style="fill:#b8e5f8;fill-opacity:1;stroke:none;stroke-width:3.03304458;stroke-miterlimit:4;stroke-dasharray:none;stroke-opacity:1"
       inkscape:export-xdpi="505.89902"
       inkscape:export-ydpi="505.89902" />
    <rect
       style="fill:#b8e5f8;fill-opacity:1;stroke:none;stroke-width:3.03304458;stroke-miterlimit:4;stroke-dasharray:none;stroke-opacity:1"
       id="rect817"
       width="51.412628"
       height="51.412628"
       x="79.735611"
       y="111.885"
       inkscape:export-xdpi="505.89902"
       inkscape:export-ydpi="505.89902" />
    <g
       id="g1697"
       transform="matrix(0.89050523,0,0,0.89050523,11.54534,15.065529)"
       inkscape:export-xdpi="505.89902"
       inkscape:export-ydpi="505.89902">
      <path
         sodipodi:nodetypes="cac"
         inkscape:connector-curvature="0"
         id="path823"
         d="m 125.88278,146.55942 c 0.23553,9.29412 -12.57339,8.05546 -20.4002,8.06154 -7.860622,0.007 -20.538939,1.23258 -20.514445,-8.0645"
         style="fill:#ffffff;fill-opacity:1;stroke:none;stroke-width:2.30244589;stroke-miterlimit:4;stroke-dasharray:none;stroke-opacity:1" />
      <path
         transform="scale(1,-1)"
         style="fill:#ffffff;fill-opacity:1;stroke:none;stroke-width:2.76499987;stroke-miterlimit:4;stroke-dasharray:none;stroke-opacity:1"
         id="path827"
         sodipodi:type="arc"
         sodipodi:cx="105.51995"
         sodipodi:cy="-133.54495"
         sodipodi:rx="20.457319"
         sodipodi:ry="13.040178"
         sodipodi:start="0"
         sodipodi:end="3.1419395"
         sodipodi:open="true"
         d="m 125.97727,-133.54495 a 20.457319,13.040178 0 0 1 -10.23071,11.29388 20.457319,13.040178 0 0 1 -20.459365,-0.002 20.457319,13.040178 0 0 1 -10.224562,-11.29615" />
      <rect
         transform="scale(-1,1)"
         ry="2.0713389"
         y="140.83282"
         x="-128.0262"
         height="4.1426778"
         width="45.168549"
         id="rect829"
         style="fill:#82b4d0;fill-opacity:1;stroke:none;stroke-width:2.76499987;stroke-miterlimit:4;stroke-dasharray:none;stroke-opacity:1" />
      <rect
         ry="2.0713389"
         style="fill:#82b4d0;fill-opacity:1;stroke:none;stroke-width:2.76499987;stroke-miterlimit:4;stroke-dasharray:none;stroke-opacity:1"
         id="rect835"
         width="45.168549"
         height="4.1426778"
         x="82.857658"
         y="135.62106" />
      <path
         style="fill:#ffffff;fill-opacity:0.97747749;stroke:none;stroke-width:0.2127039px;stroke-linecap:butt;stroke-linejoin:miter;stroke-opacity:1"
         d="m 99.698188,140.79151 c 7.967852,-0.17767 16.091222,-0.32182 25.591732,-0.16911 0.8501,0.0136 1.49284,0.18977 2.16932,0.62854 -0.85054,-0.27407 -1.34237,-0.2754 -2.15068,-0.11425 -4.67279,0.93373 -7.49126,2.06814 -11.60599,4.64989 -5.18787,-3.01067 -7.14486,-3.25367 -14.004382,-4.99507 z"
         id="path876"
         inkscape:connector-curvature="0"
         sodipodi:nodetypes="cscccc" />
      <path
         sodipodi:nodetypes="cscccc"
         inkscape:connector-curvature="0"
         id="path880"
         d="m 111.18565,135.64516 c -7.96785,-0.22744 -16.091225,-0.41197 -25.591735,-0.21648 -0.8501,0.0174 -1.49284,0.24293 -2.16932,0.80461 0.85054,-0.35084 1.34237,-0.35254 2.15068,-0.14625 4.67279,1.19529 7.49126,2.64748 11.60599,5.95244 5.187875,-3.85404 7.144865,-4.16511 14.004385,-6.39432 z"
         style="fill:#ffffff;fill-opacity:0.97747749;stroke:none;stroke-width:0.24065873px;stroke-linecap:butt;stroke-linejoin:miter;stroke-opacity:1" />
    </g>
    <path
       inkscape:connector-curvature="0"
       id="path918"
       d="m 215.47087,106.57437 c -1.294,0.005 -2.63125,0.0562 -3.59725,0.20929 -2.70721,0.42899 -5.43947,1.11372 -7.94345,2.45722 -2.66935,1.43223 -7.33236,5.85855 -7.33236,5.85855 l -2.23597,28.79101 1.86421,10.8567 -1.07934,-0.008 0.26733,4.9134 c 0,0 15.36083,1.00502 23.70798,0.85162 v -6.26835 -47.57384 c -0.67945,-0.0343 -2.0419,-0.0936 -3.65115,-0.0879 z"
       style="fill:#c3d5df;fill-opacity:1;stroke:none;stroke-width:0.23787563px;stroke-linecap:butt;stroke-linejoin:miter;stroke-opacity:1" />
    <path
       inkscape:connector-curvature="0"
       style="fill:#82b4d0;fill-opacity:1;stroke:none;stroke-width:0.23787563px;stroke-linecap:butt;stroke-linejoin:miter;stroke-opacity:1"
       d="m 195.14671,154.73939 0.26733,4.9134 c 0,0 15.706,1.89611 23.70798,1.67483 v -5.92677 l -0.0685,-0.65371 h -22.82747 z"
       id="path916" />
    <path
       inkscape:connector-curvature="0"
       style="fill:#82b4d0;fill-opacity:1;stroke:none;stroke-width:0.23787563px;stroke-linecap:butt;stroke-linejoin:miter;stroke-opacity:1"
       d="m 215.7687,106.30152 c -2.09509,-8e-5 -4.5993,0.10386 -6.23547,0.51987 -3.78561,0.9625 -9.88727,4.1046 -10.80138,5.21208 -0.94038,1.13933 -2.05259,31.40377 -2.05259,31.40377 0,0 -0.075,2.96114 2.16036,4.41006 3.05798,1.98208 5.97001,3.93924 9.66773,3.40755 2.1741,-0.31261 2.01722,-2.01405 2.05594,-3.05356 0.35249,-9.46524 0.062,-20.66443 0.59021,-31.55777 0.39514,-0.64218 1.72846,-0.73483 1.72846,-0.73483 l 6.24006,-0.24495 v -9.25783 -0.0202 c -0.48777,-0.0263 -1.66378,-0.0842 -3.35332,-0.0842 z"
       id="path920" />
    <path
       inkscape:connector-curvature="0"
       style="fill:#c3d5df;fill-opacity:1;stroke:none;stroke-width:1.26844573;stroke-miterlimit:4;stroke-dasharray:none;stroke-opacity:1"
       d="m 219.12202,107.69782 a 3.2036414,3.2036414 0 0 0 -3.20342,3.20342 3.2036414,3.2036414 0 0 0 3.20342,3.20342 z"
       id="path1558" />
    <use
       height="100%"
       width="100%"
       id="use5289-3"
       transform="matrix(-1,0,0,1,264.91079,-38.61204)"
       xlink:href="#g1582"
       inkscape:tiled-clone-of="#g1582"
       y="0"
       x="0" />
    <use
       x="0"
       y="0"
       inkscape:tiled-clone-of="#g1582"
       xlink:href="#g1582"
       transform="translate(-173.47022,-38.61205)"
       id="use5373"
       width="100%"
       height="100%" />
    <g
       inkscape:tile-y0="106.30152"
       inkscape:tile-x0="188.48991"
       id="use5289"
       transform="matrix(-1,0,0,1,438.24404,0)">
      <path
         inkscape:connector-curvature="0"
         id="path5377"
         d="m 215.47087,106.57437 c -1.294,0.005 -2.63125,0.0562 -3.59725,0.20929 -2.70721,0.42899 -5.43947,1.11372 -7.94345,2.45722 -2.66935,1.43223 -7.33236,5.85855 -7.33236,5.85855 l -2.23597,28.79101 1.86421,10.8567 -1.07934,-0.008 0.26733,4.9134 c 0,0 15.36083,1.00502 23.70798,0.85162 v -6.26835 -47.57384 c -0.67945,-0.0343 -2.0419,-0.0936 -3.65115,-0.0879 z"
         style="fill:#c3d5df;fill-opacity:1;stroke:none;stroke-width:0.23787563px;stroke-linecap:butt;stroke-linejoin:miter;stroke-opacity:1" />
      <path
         inkscape:connector-curvature="0"
         style="fill:#82b4d0;fill-opacity:1;stroke:none;stroke-width:0.23787563px;stroke-linecap:butt;stroke-linejoin:miter;stroke-opacity:1"
         d="m 195.14671,154.73939 0.26733,4.9134 c 0,0 15.706,1.89611 23.70798,1.67483 v -5.92677 l -0.0685,-0.65371 h -22.82747 z"
         id="path5379" />
      <path
         inkscape:connector-curvature="0"
         style="fill:#82b4d0;fill-opacity:1;stroke:none;stroke-width:0.23787563px;stroke-linecap:butt;stroke-linejoin:miter;stroke-opacity:1"
         d="m 215.7687,106.30152 c -2.09509,-8e-5 -4.5993,0.10386 -6.23547,0.51987 -3.78561,0.9625 -9.88727,4.1046 -10.80138,5.21208 -0.94038,1.13933 -2.05259,31.40377 -2.05259,31.40377 0,0 -0.075,2.96114 2.16036,4.41006 3.05798,1.98208 5.97001,3.93924 9.66773,3.40755 2.1741,-0.31261 2.01722,-2.01405 2.05594,-3.05356 0.35249,-9.46524 0.062,-20.66443 0.59021,-31.55777 0.39514,-0.64218 1.72846,-0.73483 1.72846,-0.73483 l 6.24006,-0.24495 v -9.25783 -0.0202 c -0.48777,-0.0263 -1.66378,-0.0842 -3.35332,-0.0842 z"
         id="path5381" />
      <path
         inkscape:connector-curvature="0"
         transform="scale(0.26458333)"
         style="fill:#c3d5df;fill-opacity:1;stroke:none;stroke-width:4.79412556;stroke-miterlimit:4;stroke-dasharray:none;stroke-opacity:1"
         d="m 828.17773,407.04688 a 12.108251,12.108251 0 0 0 -12.10742,12.10742 12.108251,12.108251 0 0 0 12.10742,12.10742 z"
         id="path5383" />
      <path
         inkscape:connector-curvature="0"
         id="path5385"
         d="m 41.2792,118.32074 c -0.831781,0.003 -1.691364,0.0361 -2.312308,0.13453 -1.740192,0.27575 -3.496486,0.71589 -5.106041,1.57949 -1.715856,0.92064 -4.713233,3.76587 -4.713233,3.76587 l -1.43728,18.50684 1.198313,6.97867 -0.693799,-0.005 0.171839,3.15833 c 0,0 9.873926,0.64602 15.239465,0.54742 v -4.02929 -30.58042 c -0.43675,-0.022 -1.312531,-0.0602 -2.346956,-0.0565 z"
         style="fill:#c3d5df;fill-opacity:1;stroke:none;stroke-width:0.15290619px;stroke-linecap:butt;stroke-linejoin:miter;stroke-opacity:1" />
      <path
         inkscape:connector-curvature="0"
         style="fill:#82b4d0;fill-opacity:1;stroke:none;stroke-width:0.15290619px;stroke-linecap:butt;stroke-linejoin:miter;stroke-opacity:1"
         d="m 28.214852,149.28116 0.171839,3.15833 c 0,0 10.095801,1.21881 15.239465,1.07658 v -3.80973 l -0.04403,-0.4202 H 28.908651 Z"
         id="path5387" />
      <path
         inkscape:connector-curvature="0"
         style="fill:#82b4d0;fill-opacity:1;stroke:none;stroke-width:0.15290619px;stroke-linecap:butt;stroke-linejoin:miter;stroke-opacity:1"
         d="m 41.470645,118.14535 c -1.346721,-5e-5 -2.956425,0.0668 -4.008153,0.33417 -2.433386,0.61869 -6.355527,2.63843 -6.943116,3.35032 -0.604475,0.73236 -1.319402,20.18631 -1.319402,20.18631 0,0 -0.04821,1.90342 1.388677,2.83478 1.965666,1.27408 3.837516,2.53214 6.214406,2.19037 1.397509,-0.20095 1.296667,-1.29463 1.321556,-1.96283 0.22658,-6.08424 0.03985,-13.28307 0.379387,-20.2853 0.253995,-0.41279 1.111052,-0.47234 1.111052,-0.47234 l 4.011104,-0.15746 v -5.95092 -0.013 c -0.313538,-0.0169 -1.069476,-0.0541 -2.155511,-0.0541 z"
         id="path5389" />
      <path
         style="fill:#c3d5df;fill-opacity:1;stroke:none;stroke-width:0.81535554;stroke-miterlimit:4;stroke-dasharray:none;stroke-opacity:1"
         d="m 43.626157,119.04289 a 2.0592973,2.0592973 0 0 0 -2.059156,2.05915 2.0592973,2.0592973 0 0 0 2.059156,2.05916 z"
         id="path5391"
         inkscape:connector-curvature="0" />
      <use
         height="100%"
         width="100%"
         id="use5393"
         transform="matrix(-1,0,0,1,264.91079,-38.61204)"
         xlink:href="#g1582"
         inkscape:tiled-clone-of="#g1582"
         y="0"
         x="0" />
      <path
         style="fill:#c3d5df;fill-opacity:1;stroke:none;stroke-width:0.15290619px;stroke-linecap:butt;stroke-linejoin:miter;stroke-opacity:1"
         d="m 45.885048,118.32074 c 0.831781,0.003 1.691364,0.0361 2.312308,0.13453 1.740192,0.27575 3.496486,0.71589 5.106041,1.57949 1.715856,0.92064 4.713233,3.76587 4.713233,3.76587 l 1.43728,18.50684 -1.198313,6.97867 0.693799,-0.005 -0.171839,3.15833 c 0,0 -9.873926,0.64602 -15.239465,0.54742 v -4.02929 -30.58042 c 0.43675,-0.022 1.312531,-0.0602 2.346956,-0.0565 z"
         id="path5395"
         inkscape:connector-curvature="0" />
      <path
         id="path5397"
         d="m 58.949396,149.28116 -0.171839,3.15833 c 0,0 -10.095801,1.21881 -15.239465,1.07658 v -3.80973 l 0.04403,-0.4202 h 14.673473 z"
         style="fill:#82b4d0;fill-opacity:1;stroke:none;stroke-width:0.15290619px;stroke-linecap:butt;stroke-linejoin:miter;stroke-opacity:1"
         inkscape:connector-curvature="0" />
      <path
         id="path5399"
         d="m 45.693603,118.14535 c 1.346721,-5e-5 2.956425,0.0668 4.008153,0.33417 2.433386,0.61869 6.355527,2.63843 6.943116,3.35032 0.604475,0.73236 1.319402,20.18631 1.319402,20.18631 0,0 0.04821,1.90342 -1.388677,2.83478 -1.965666,1.27408 -3.837516,2.53214 -6.214406,2.19037 -1.397509,-0.20095 -1.296667,-1.29463 -1.321556,-1.96283 -0.22658,-6.08424 -0.03985,-13.28307 -0.379387,-20.2853 -0.253995,-0.41279 -1.111052,-0.47234 -1.111052,-0.47234 l -4.011104,-0.15746 v -5.95092 -0.013 c 0.313538,-0.0169 1.069476,-0.0541 2.155511,-0.0541 z"
         style="fill:#82b4d0;fill-opacity:1;stroke:none;stroke-width:0.15290619px;stroke-linecap:butt;stroke-linejoin:miter;stroke-opacity:1"
         inkscape:connector-curvature="0" />
      <path
         inkscape:connector-curvature="0"
         id="path5401"
         d="m 43.538091,119.04289 a 2.0592973,2.0592973 0 0 1 2.059156,2.05915 2.0592973,2.0592973 0 0 1 -2.059156,2.05916 z"
         style="fill:#c3d5df;fill-opacity:1;stroke:none;stroke-width:0.81535554;stroke-miterlimit:4;stroke-dasharray:none;stroke-opacity:1" />
      <use
         x="0"
         y="0"
         inkscape:tiled-clone-of="#g1582"
         xlink:href="#g1582"
         transform="translate(-173.47022,-38.61205)"
         id="use5403"
         width="100%"
         height="100%" />
    </g>
    <rect
       y="243.81339"
       x="235.99899"
       height="46.504898"
       width="97.018837"
       id="rect210"
       style="fill:#82b4d0;fill-opacity:1;stroke:none;stroke-width:2.76499987;stroke-miterlimit:4;stroke-dasharray:none;stroke-opacity:1" />
    <g
       id="g1720"
       inkscape:export-xdpi="505.89902"
       inkscape:export-ydpi="505.89902">
      <g
         style="fill:#ffffff;fill-opacity:1"
         transform="matrix(0.76562501,0,0,0.76562501,13.6488,47.523722)"
         id="g160">
        <g
           style="fill:#ffffff;fill-opacity:1"
           id="g154">
          <circle
             style="fill:#ffffff;fill-opacity:1;stroke:none;stroke-width:2.76499987;stroke-miterlimit:4;stroke-dasharray:none;stroke-opacity:1"
             id="path144"
             cx="31.367752"
             cy="186.19904"
             r="12.662203" />
          <circle
             r="12.662203"
             cy="186.19904"
             cx="54.424301"
             id="circle146"
             style="fill:#ffffff;fill-opacity:1;stroke:none;stroke-width:2.76499987;stroke-miterlimit:4;stroke-dasharray:none;stroke-opacity:1" />
        </g>
        <path
           transform="matrix(1.0367031,0,0,0.74693004,-1.3784966,46.398605)"
           inkscape:transform-center-y="4.861788e-06"
           d="m 42.707043,228.43607 c -5.046647,0 -25.462631,-35.36152 -22.939307,-39.73204 2.523324,-4.37053 43.355289,-4.37053 45.878613,0 2.523324,4.37052 -17.892658,39.73204 -22.939306,39.73204 z"
           inkscape:randomized="0"
           inkscape:rounded="0.11"
           inkscape:flatsided="true"
           sodipodi:arg2="2.6179939"
           sodipodi:arg1="1.5707963"
           sodipodi:r2="22.939308"
           sodipodi:r1="26.488029"
           sodipodi:cy="201.94804"
           sodipodi:cx="42.707043"
           sodipodi:sides="3"
           id="path150"
           style="fill:#ffffff;fill-opacity:1;stroke:none;stroke-width:5.91741896;stroke-miterlimit:4;stroke-dasharray:none;stroke-opacity:1"
           sodipodi:type="star" />
      </g>
      <g
         style="fill:#82b4d0;fill-opacity:1"
         id="g1620">
        <g
           id="g193"
           style="fill:#82b4d0;fill-opacity:1"
           transform="matrix(0.53906252,0,0,0.52167932,23.36743,95.161582)">
          <circle
             r="12.662203"
             cy="186.19904"
             cx="31.367752"
             id="circle189"
             style="fill:#82b4d0;fill-opacity:1;stroke:none;stroke-width:2.76499987;stroke-miterlimit:4;stroke-dasharray:none;stroke-opacity:1" />
          <circle
             style="fill:#82b4d0;fill-opacity:1;stroke:none;stroke-width:2.76499987;stroke-miterlimit:4;stroke-dasharray:none;stroke-opacity:1"
             id="circle191"
             cx="54.424301"
             cy="186.19904"
             r="12.662203" />
        </g>
        <path
           sodipodi:type="star"
           style="fill:#82b4d0;fill-opacity:1;stroke:none;stroke-width:5.91741896;stroke-miterlimit:4;stroke-dasharray:none;stroke-opacity:1"
           id="path195"
           sodipodi:sides="3"
           sodipodi:cx="42.707043"
           sodipodi:cy="201.94804"
           sodipodi:r1="26.488029"
           sodipodi:r2="22.939308"
           sodipodi:arg1="1.5707963"
           sodipodi:arg2="2.6179939"
           inkscape:flatsided="true"
           inkscape:rounded="0.11"
           inkscape:randomized="0"
           d="m 42.707043,228.43607 c -5.046647,0 -25.462631,-35.36152 -22.939307,-39.73204 2.523324,-4.37053 43.355289,-4.37053 45.878613,0 2.523324,4.37052 -17.892658,39.73204 -22.939306,39.73204 z"
           inkscape:transform-center-y="4.861788e-06"
           transform="matrix(0.55884779,0,0,0.38965796,22.624334,119.36677)" />
      </g>
    </g>
    <rect
       y="243.81339"
       x="310.01923"
       height="46.504906"
       width="22.9986"
       id="rect1023"
       style="fill:#c3d5df;fill-opacity:1;stroke:none;stroke-width:2.68875051;stroke-miterlimit:4;stroke-dasharray:none;stroke-opacity:1" />
    <rect
       y="169.14839"
       x="79.735611"
       height="51.412628"
       width="51.412628"
       id="rect1233"
       style="fill:#b8e5f8;fill-opacity:1;stroke:none;stroke-width:3.03304458;stroke-miterlimit:4;stroke-dasharray:none;stroke-opacity:1"
       inkscape:export-xdpi="505.89902"
       inkscape:export-ydpi="505.89902" />
    <g
       id="g1202"
       transform="matrix(0.3912768,0,0,0.3912768,49.241894,85.074411)"
       inkscape:export-xdpi="505.89902"
       inkscape:export-ydpi="505.89902">
      <g
         id="g1189">
        <g
           id="g1185">
          <rect
             y="258.51321"
             x="94.346138"
             height="46.504898"
             width="97.018837"
             id="rect1021"
             style="fill:#82b4d0;fill-opacity:1;stroke:none;stroke-width:2.76499987;stroke-miterlimit:4;stroke-dasharray:none;stroke-opacity:1" />
        </g>
      </g>
      <g
         id="g1171">
        <rect
           style="fill:#ffffff;fill-opacity:1;stroke:none;stroke-width:2.68875051;stroke-miterlimit:4;stroke-dasharray:none;stroke-opacity:1"
           id="rect212"
           width="22.9986"
           height="46.504906"
           x="168.36636"
           y="258.51321" />
        <g
           id="g1162">
          <rect
             style="fill:#ffffff;fill-opacity:1;stroke:none;stroke-width:2.78833318;stroke-miterlimit:4;stroke-dasharray:none;stroke-opacity:1"
             id="rect1090"
             width="56.734982"
             height="31.938702"
             x="104.66591"
             y="265.7963"
             ry="8.3552742" />
          <g
             id="g1101"
             transform="matrix(0.53906252,0,0,0.52167932,23.96878,93.825244)"
             style="fill:#c3d5df;fill-opacity:1">
            <rect
               ry="1.461072"
               y="345.40298"
               x="163.89793"
               height="5.63557"
               width="76.849655"
               id="rect1092"
               style="fill:#c3d5df;fill-opacity:1;stroke:none;stroke-width:3.84702468;stroke-miterlimit:4;stroke-dasharray:none;stroke-opacity:1" />
            <rect
               style="fill:#c3d5df;fill-opacity:1;stroke:none;stroke-width:3.48910642;stroke-miterlimit:4;stroke-dasharray:none;stroke-opacity:1"
               id="rect1094"
               width="63.215034"
               height="5.63557"
               x="163.89793"
               y="357.44263"
               ry="1.461072" />
            <rect
               ry="1.461072"
               y="369.48227"
               x="163.89793"
               height="5.63557"
               width="69.164688"
               id="rect1096"
               style="fill:#c3d5df;fill-opacity:1;stroke:none;stroke-width:3.64960814;stroke-miterlimit:4;stroke-dasharray:none;stroke-opacity:1" />
          </g>
        </g>
      </g>
    </g>
    <rect
       style="fill:#b8e5f8;fill-opacity:1;stroke:none;stroke-width:2.76499987;stroke-miterlimit:4;stroke-dasharray:none;stroke-opacity:1"
       id="rect1340"
       width="44.223213"
       height="28.915178"
       x="83.24926"
       y="181.62276"
       ry="0"
       clip-path="url(#clipPath1580)"
       inkscape:export-xdpi="505.89902"
       inkscape:export-ydpi="505.89902" />
    <g
       id="g1496"
       transform="translate(118.11756,3.1183036)">
      <rect
         style="fill:#ffffff;fill-opacity:1;stroke:none;stroke-width:2.76499987;stroke-miterlimit:4;stroke-dasharray:none;stroke-opacity:1"
         id="rect1464"
         width="44.223213"
         height="28.915178"
         x="83.24926"
         y="181.62276"
         ry="0" />
      <g
         id="g1494"
         style="fill:#000000">
        <circle
           r="1.9563839"
           style="fill:#000000;fill-opacity:1;stroke:none;stroke-width:1.08188033;stroke-miterlimit:4;stroke-dasharray:none;stroke-opacity:1"
           id="circle1466"
           cx="86.157349"
           cy="186.27692" />
        <circle
           r="1.9563839"
           style="fill:#000000;fill-opacity:1;stroke:none;stroke-width:1.08188033;stroke-miterlimit:4;stroke-dasharray:none;stroke-opacity:1"
           id="circle1468"
           cx="86.157349"
           cy="204.42091" />
        <circle
           r="1.9563839"
           style="fill:#000000;fill-opacity:1;stroke:none;stroke-width:1.08188033;stroke-miterlimit:4;stroke-dasharray:none;stroke-opacity:1"
           id="circle1470"
           cx="124.11856"
           cy="204.42091" />
        <circle
           r="1.9563839"
           style="fill:#000000;fill-opacity:1;stroke:none;stroke-width:1.08188033;stroke-miterlimit:4;stroke-dasharray:none;stroke-opacity:1"
           id="circle1472"
           cx="124.11856"
           cy="186.22464" />
        <g
           id="g1482"
           transform="matrix(0.25599447,0,0,0.24773939,52.444806,106.7011)"
           style="fill:#000000;fill-opacity:1">
          <ellipse
             style="fill:#000000;fill-opacity:1;stroke:none;stroke-width:2.65918708;stroke-miterlimit:4;stroke-dasharray:none;stroke-opacity:1"
             id="ellipse1474"
             cx="131.67064"
             cy="350.95319"
             rx="5.6765866"
             ry="5.8657398" />
          <ellipse
             ry="5.8657398"
             rx="5.6765866"
             cy="337.20578"
             cx="131.67064"
             id="ellipse1476"
             style="fill:#000000;fill-opacity:1;stroke:none;stroke-width:2.65918708;stroke-miterlimit:4;stroke-dasharray:none;stroke-opacity:1" />
          <ellipse
             style="fill:#000000;fill-opacity:1;stroke:none;stroke-width:2.65918708;stroke-miterlimit:4;stroke-dasharray:none;stroke-opacity:1"
             id="ellipse1478"
             cx="131.67064"
             cy="378.44797"
             rx="5.6765866"
             ry="5.8657398" />
          <ellipse
             ry="5.8657398"
             rx="5.6765866"
             cy="364.70056"
             cx="131.91855"
             id="ellipse1480"
             style="fill:#000000;fill-opacity:1;stroke:none;stroke-width:2.65918708;stroke-miterlimit:4;stroke-dasharray:none;stroke-opacity:1" />
        </g>
        <g
           transform="matrix(0.25599447,0,0,0.24773939,90.379876,106.7011)"
           id="g1492"
           style="fill:#000000;fill-opacity:1">
          <ellipse
             ry="5.8657398"
             rx="5.6765866"
             cy="350.95319"
             cx="131.67064"
             id="ellipse1484"
             style="fill:#000000;fill-opacity:1;stroke:none;stroke-width:2.65918708;stroke-miterlimit:4;stroke-dasharray:none;stroke-opacity:1" />
          <ellipse
             style="fill:#000000;fill-opacity:1;stroke:none;stroke-width:2.65918708;stroke-miterlimit:4;stroke-dasharray:none;stroke-opacity:1"
             id="ellipse1486"
             cx="131.67064"
             cy="337.20578"
             rx="5.6765866"
             ry="5.8657398" />
          <ellipse
             ry="5.8657398"
             rx="5.6765866"
             cy="378.44797"
             cx="131.67064"
             id="ellipse1488"
             style="fill:#000000;fill-opacity:1;stroke:none;stroke-width:2.65918708;stroke-miterlimit:4;stroke-dasharray:none;stroke-opacity:1" />
          <ellipse
             style="fill:#000000;fill-opacity:1;stroke:none;stroke-width:2.65918708;stroke-miterlimit:4;stroke-dasharray:none;stroke-opacity:1"
             id="ellipse1490"
             cx="131.91855"
             cy="364.70056"
             rx="5.6765866"
             ry="5.8657398" />
        </g>
      </g>
    </g>
    <g
       id="g1708"
       inkscape:export-xdpi="505.89902"
       inkscape:export-ydpi="505.89902">
      <path
         style="fill:#ffffff;fill-opacity:1;stroke:none;stroke-width:0.15290619px;stroke-linecap:butt;stroke-linejoin:miter;stroke-opacity:1"
         d="m 44.874264,120.07536 c -0.831781,0.003 -1.691576,0.0364 -2.312522,0.13487 -1.740191,0.27575 -3.496077,0.71563 -5.10563,1.57923 -1.715857,0.92064 -4.713409,3.76618 -4.713409,3.76618 l -1.437121,18.50688 1.197861,6.97839 -0.693499,-0.005 0.171566,3.15846 c 0,0 9.820471,0.64273 15.195455,0.54829 5.37488,0.0945 15.195454,-0.54829 15.195454,-0.54829 l 0.172082,-3.15846 -0.694015,0.005 1.198377,-6.97839 -1.437121,-18.50688 c 0,0 -2.997552,-2.84554 -4.713406,-3.76618 -1.609556,-0.8636 -3.365958,-1.30348 -5.106149,-1.57923 -0.620943,-0.0984 -1.480222,-0.13187 -2.312003,-0.13487 -1.0105,-0.004 -1.856878,0.0331 -2.303219,0.0553 -0.446442,-0.0222 -1.292471,-0.0589 -2.302701,-0.0553 z"
         id="path918-3"
         inkscape:connector-curvature="0" />
      <g
         transform="translate(3.5950439,1.7548333)"
         id="g5437"
         style="fill:#82b4d0;fill-opacity:1">
        <g
           style="fill:#82b4d0;fill-opacity:1"
           id="g1633">
          <path
             transform="translate(-3.5950439,-1.7548333)"
             inkscape:connector-curvature="0"
             id="path920-7"
             d="m 45.065465,119.90017 c -1.346721,-5e-5 -2.956295,0.067 -4.008024,0.33435 -2.433387,0.61869 -6.355655,2.63829 -6.943244,3.35018 -0.604475,0.73236 -1.3193,20.18637 -1.3193,20.18637 0,0 -0.04834,1.90309 1.388547,2.83445 1.965664,1.27408 3.837718,2.53233 6.214607,2.19056 1.397508,-0.20095 1.296477,-1.29447 1.321366,-1.96267 0.226579,-6.08424 0.04028,-13.28335 0.37982,-20.28558 0.253998,-0.41279 1.111044,-0.47232 1.111044,-0.47232 l 3.9672,-0.15555 3.966683,0.15555 c 0,0 0.857049,0.0595 1.111044,0.47232 0.339537,7.00223 0.152725,14.20134 0.379304,20.28558 0.0249,0.6682 -0.07563,1.76172 1.321884,1.96267 2.37689,0.34177 4.248426,-0.91648 6.214092,-2.19056 1.436886,-0.93136 1.389062,-2.83445 1.389062,-2.83445 0,0 -0.715343,-19.45401 -1.319818,-20.18637 -0.587587,-0.71189 -4.509341,-2.73149 -6.942727,-3.35018 -1.051727,-0.26737 -2.66182,-0.3344 -4.008541,-0.33435 -1.055407,0 -1.782125,0.0347 -2.110983,0.0522 -0.32869,-0.0175 -1.056252,-0.0522 -2.112016,-0.0522 z"
             style="fill:#82b4d0;fill-opacity:1;stroke:none;stroke-width:0.15290619px;stroke-linecap:butt;stroke-linejoin:miter;stroke-opacity:1" />
          <path
             id="path916-6"
             d="m 28.214852,149.28116 0.171839,3.15833 c 0,0 10.095801,1.21881 15.239465,1.07658 v -3.80973 l -0.04403,-0.4202 H 28.908651 Z"
             style="fill:#82b4d0;fill-opacity:1;stroke:none;stroke-width:0.15290619px;stroke-linecap:butt;stroke-linejoin:miter;stroke-opacity:1"
             inkscape:connector-curvature="0" />
          <path
             inkscape:connector-curvature="0"
             style="fill:#82b4d0;fill-opacity:1;stroke:none;stroke-width:0.15290619px;stroke-linecap:butt;stroke-linejoin:miter;stroke-opacity:1"
             d="m 58.949396,149.28116 -0.171839,3.15833 c 0,0 -10.095801,1.21881 -15.239465,1.07658 v -3.80973 l 0.04403,-0.4202 h 14.673473 z"
             id="path5367" />
        </g>
      </g>
      <g
         id="g1637">
        <path
           style="fill:#ffffff;fill-opacity:1;stroke:none;stroke-width:0.81535554;stroke-miterlimit:4;stroke-dasharray:none;stroke-opacity:1"
           d="m 47.221201,120.79772 a 2.0592973,2.0592973 0 0 0 -2.059156,2.05915 2.0592973,2.0592973 0 0 0 2.059156,2.05916 z"
           id="path1558-5"
           inkscape:connector-curvature="0" />
        <path
           inkscape:connector-curvature="0"
           id="path5371"
           d="m 47.133135,120.79772 a 2.0592973,2.0592973 0 0 1 2.059156,2.05915 2.0592973,2.0592973 0 0 1 -2.059156,2.05916 z"
           style="fill:#ffffff;fill-opacity:1;stroke:none;stroke-width:0.81535554;stroke-miterlimit:4;stroke-dasharray:none;stroke-opacity:1" />
      </g>
    </g>
    <rect
       style="fill:#b8e5f8;fill-opacity:1;stroke:none;stroke-width:3.03304458;stroke-miterlimit:4;stroke-dasharray:none;stroke-opacity:1"
       id="rect1683"
       width="51.412628"
       height="51.412628"
       x="79.735611"
       y="230.75851"
       inkscape:export-xdpi="505.89902"
       inkscape:export-ydpi="505.89902" />
    <path
       style="fill:#ffffff;stroke:#82b4d0;stroke-width:0.696;stroke-linecap:butt;stroke-linejoin:miter;stroke-opacity:1;fill-opacity:1;stroke-miterlimit:4;stroke-dasharray:none"
       d="m 96.028462,273.74783 0.511174,-22.84862 -1.911932,3.45145 c -1.663061,-0.96221 -3.075257,-2.10002 -5.617082,-2.44709 0,0 2.068817,-6.82404 4.54677,-9.39007 2.040557,-2.11309 7.413208,-4.05256 7.413208,-4.05256 0,0 2.31204,3.63526 4.1514,3.63526 1.83936,0 4.1514,-3.63526 4.1514,-3.63526 0,0 5.37266,1.93947 7.41321,4.05256 2.47795,2.56603 4.54677,9.39007 4.54677,9.39007 -2.54182,0.34707 -3.95402,1.48488 -5.61708,2.44709 l -1.91194,-3.45145 0.51118,22.84862 c 0,0 -6.29784,1.16317 -9.09354,0.98843 -2.7957,0.17474 -9.093538,-0.98843 -9.093538,-0.98843 z"
       id="path1662"
       inkscape:connector-curvature="0"
       sodipodi:nodetypes="ccccscscscccccc"
       inkscape:export-xdpi="505.89902"
       inkscape:export-ydpi="505.89902" />
    <rect
       y="230.56953"
       x="21.470854"
       height="51.412628"
       width="51.412628"
       id="rect1685"
       style="fill:#b8e5f8;fill-opacity:1;stroke:none;stroke-width:3.03304458;stroke-miterlimit:4;stroke-dasharray:none;stroke-opacity:1"
       inkscape:export-xdpi="505.89902"
       inkscape:export-ydpi="505.89902" />
    <rect
       style="fill:#82b4d0;fill-opacity:1;stroke:none;stroke-width:2.07130623;stroke-miterlimit:4;stroke-dasharray:none;stroke-opacity:1"
       id="rect1687"
       width="18.658356"
       height="38.071934"
       x="36.358692"
       y="238.46553"
       ry="2.205914"
       inkscape:export-xdpi="505.89902"
       inkscape:export-ydpi="505.89902" />
    <rect
       ry="2.0667663"
       y="239.66631"
       x="36.569195"
       height="35.67038"
       width="18.23735"
       id="rect1689"
       style="fill:#ffffff;fill-opacity:1;stroke:none;stroke-width:1.98216534;stroke-miterlimit:4;stroke-dasharray:none;stroke-opacity:1"
       inkscape:export-xdpi="505.89902"
       inkscape:export-ydpi="505.89902" />
  </g>
</svg>
